<?xml version="1.0" standalone="no"?>
<!DOCTYPE svg PUBLIC "-//W3C//DTD SVG 20010904//EN"
 "http://www.w3.org/TR/2001/REC-SVG-20010904/DTD/svg10.dtd">
<svg version="1.0" xmlns="http://www.w3.org/2000/svg"
 width="953.000000pt" height="1024.000000pt" viewBox="0 0 953.000000 1024.000000"
 preserveAspectRatio="xMidYMid meet">

<g transform="translate(0.000000,1024.000000) scale(0.100000,-0.100000)"
fill="#000000" stroke="none">
<path d="M5790 9446 c-88 -20 -130 -35 -217 -81 -272 -143 -584 -488 -809
-895 -109 -199 -246 -500 -357 -790 -100 -261 -299 -925 -358 -1198 -12 -57
-28 -110 -34 -119 -42 -58 -46 128 -24 1332 5 314 14 640 19 725 14 214 12
315 -4 404 -47 245 -259 426 -501 426 -245 0 -511 -194 -687 -500 -128 -223
-258 -640 -288 -920 -6 -58 -20 -193 -31 -300 -11 -107 -29 -276 -40 -375 -20
-192 -23 -489 -8 -850 20 -482 20 -485 6 -485 -19 0 -48 90 -227 715 -108 376
-170 634 -210 871 -16 94 -39 196 -51 226 -43 112 -135 201 -242 233 -115 34
-304 11 -446 -56 -69 -32 -99 -54 -166 -122 -65 -66 -90 -101 -128 -177 -92
-187 -136 -447 -123 -730 28 -609 167 -1233 444 -2001 55 -151 103 -295 107
-320 8 -58 -6 -118 -59 -242 -67 -156 -181 -463 -204 -547 -51 -187 -102 -560
-102 -750 0 -419 185 -862 490 -1170 211 -213 572 -462 796 -550 133 -52 661
-203 818 -235 227 -45 718 -83 906 -70 101 7 375 31 515 46 540 56 1247 369
1720 764 44 36 143 128 220 204 235 231 583 542 740 662 166 127 381 255 564
334 58 26 197 78 310 116 241 82 323 123 407 201 106 100 164 247 164 417 -1
109 -12 156 -61 258 -30 62 -60 104 -124 171 -229 240 -522 357 -930 369 -207
6 -347 -14 -537 -78 -272 -92 -428 -173 -864 -447 -45 -28 -84 -48 -87 -45
-11 10 55 179 110 283 72 137 267 461 389 647 430 659 1016 1384 1660 2054
188 195 222 247 250 379 19 89 14 177 -17 276 -29 95 -71 165 -147 246 -146
154 -388 208 -669 149 -328 -69 -586 -233 -1095 -697 -225 -206 -328 -324
-629 -724 -209 -277 -270 -365 -389 -565 -45 -77 -89 -147 -96 -155 -29 -30
-13 43 82 371 168 588 253 837 407 1201 70 163 122 296 337 858 45 118 115
289 155 380 118 270 136 346 111 466 -45 219 -219 365 -490 413 -77 14 -206
12 -276 -3z m270 -232 c83 -26 212 -105 256 -156 15 -18 36 -53 47 -77 34 -76
22 -129 -75 -351 -100 -225 -159 -372 -345 -855 -423 -1098 -504 -1345 -699
-2135 -52 -212 -106 -432 -121 -490 -14 -58 -29 -108 -33 -113 -6 -7 -167 18
-774 118 -116 19 -214 39 -220 45 -20 20 -12 182 34 663 40 428 87 670 215
1110 135 467 286 861 474 1237 179 358 317 559 516 753 263 259 472 331 725
251z m-2431 -213 c126 -43 200 -117 222 -219 12 -60 11 -114 -16 -572 -26
-437 -38 -931 -31 -1325 9 -547 39 -1095 76 -1390 10 -82 22 -182 26 -222 l6
-72 -33 -5 c-19 -3 -261 -31 -539 -61 -278 -30 -523 -58 -546 -61 l-40 -6 -27
169 c-59 365 -127 1093 -127 1348 0 138 36 780 44 793 2 4 9 70 16 147 23 285
59 493 125 717 84 283 188 477 341 637 80 84 143 124 224 141 71 15 207 5 279
-19z m4335 -1256 c124 -32 282 -138 343 -228 43 -64 59 -144 45 -221 -20 -106
-55 -159 -218 -326 -238 -246 -621 -668 -820 -905 -229 -274 -487 -627 -799
-1095 -254 -381 -354 -551 -517 -875 -125 -249 -167 -324 -225 -404 -1 -2 -58
21 -125 52 -266 119 -456 161 -738 161 -210 0 -326 -15 -535 -69 -149 -39
-250 -78 -350 -137 -220 -129 -500 -377 -648 -573 -84 -112 -191 -322 -217
-430 -33 -134 -49 -261 -38 -306 12 -44 15 -45 63 -25 42 18 57 48 85 169 49
216 157 403 359 624 297 325 585 495 956 565 163 31 494 33 625 4 206 -45 414
-137 543 -241 42 -34 78 -55 93 -55 18 0 56 29 134 104 203 194 296 268 459
366 497 296 998 417 1419 340 324 -58 617 -304 663 -554 28 -156 -49 -283
-226 -369 -43 -21 -146 -61 -229 -89 -290 -96 -510 -202 -746 -359 -253 -169
-389 -286 -740 -639 -179 -180 -368 -360 -420 -402 -328 -260 -661 -427 -1095
-552 -660 -189 -1297 -245 -1790 -156 -271 49 -688 174 -925 277 -365 159
-650 409 -863 758 -225 371 -286 663 -236 1140 26 244 100 499 234 805 135
308 133 286 31 552 -391 1023 -581 2084 -455 2538 38 140 137 304 221 371 18
14 56 39 83 55 46 27 58 29 150 29 117 0 165 -17 239 -85 69 -64 82 -102 117
-331 40 -272 99 -564 149 -735 41 -145 90 -288 354 -1026 86 -241 156 -442
156 -447 0 -5 -88 -44 -196 -87 -207 -81 -224 -93 -210 -147 l6 -24 117 39
c857 284 1674 350 2458 197 251 -49 580 -147 807 -242 l108 -45 10 39 c6 22 8
44 5 50 -4 5 -86 48 -182 94 -117 57 -174 89 -170 97 46 110 165 375 202 448
187 374 516 865 837 1253 412 496 984 929 1383 1048 75 22 183 24 259 4z"/>
</g>
</svg>
